<?xml version="1.0" encoding="utf-8"?>
<!-- Generator: Adobe Illustrator 16.0.4, SVG Export Plug-In . SVG Version: 6.00 Build 0)  -->
<!DOCTYPE svg PUBLIC "-//W3C//DTD SVG 1.1//EN" "http://www.w3.org/Graphics/SVG/1.1/DTD/svg11.dtd">
<svg version="1.1" id="Calque_1" xmlns="http://www.w3.org/2000/svg" xmlns:xlink="http://www.w3.org/1999/xlink" x="0px" y="0px"
	 width="104px" height="58px" viewBox="-254 443.5 104 58" enable-background="new -254 443.5 104 58" xml:space="preserve">
<g>
	<path fill="#FFFFFF" d="M-204.618,493.119l-1.821-3.957h-8.016l-1.845,3.957h-3.298l9.153-19.59l9.125,19.59H-204.618
		 M-210.445,480.357l-2.613,5.83h5.223L-210.445,480.357z"/>
	<path fill="#FFFFFF" d="M-187.585,478.197c-0.511-0.334-1.066-0.588-1.676-0.766c-0.604-0.176-1.217-0.264-1.829-0.264
		c-0.899,0-1.742,0.17-2.533,0.516c-0.793,0.344-1.484,0.807-2.07,1.396c-0.59,0.587-1.057,1.277-1.399,2.069
		c-0.339,0.791-0.514,1.638-0.514,2.533c0,0.896,0.175,1.738,0.514,2.53c0.343,0.79,0.81,1.482,1.399,2.069
		c0.586,0.59,1.276,1.057,2.07,1.399c0.791,0.343,1.635,0.513,2.533,0.513h4.113v2.98h-4.113c-1.32,0-2.555-0.249-3.706-0.748
		c-1.151-0.505-2.153-1.18-3.007-2.033c-0.854-0.851-1.529-1.854-2.031-3.006c-0.502-1.15-0.75-2.383-0.75-3.703
		c0-1.303,0.248-2.527,0.75-3.682c0.502-1.148,1.178-2.156,2.031-3.018s1.855-1.543,3.007-2.043
		c1.151-0.501,2.386-0.752,3.706-0.752c1.862,0,3.574,0.501,5.141,1.506L-187.585,478.197"/>
	<path fill="#FFFFFF" d="M-156.998,493.119l-1.82-3.957h-8.015l-1.848,3.957h-3.296l9.151-19.59l9.122,19.59H-156.998
		 M-162.825,480.357l-2.61,5.83h5.22L-162.825,480.357z"/>
	<polyline fill="#FFFFFF" points="-188.402,459.023 -193.558,457.246 -191.781,452.09 -186.625,453.868 -188.402,459.023 	"/>
	<polyline fill="#FFFFFF" points="-175.631,467.729 -178.081,469.118 -178.904,467.554 -176.453,466.163 -175.631,467.729 	"/>
	<polyline fill="#FFFFFF" points="-174.895,474.471 -174.895,476 -177.871,476 -177.871,474.471 -183.471,474.471 -183.471,477.348 
		-177.874,477.348 -177.874,493.119 -174.895,493.119 -174.895,477.348 -169.297,477.348 -169.297,474.471 -174.895,474.471 	"/>
	<path fill="#FFFFFF" d="M-230.255,474.925c0.04,0,7.786,1.021,9.656,2.103c0.183,0.104-4.94-0.303-9.435,1.671
		c-0.365,0.158,2.48,5.159,3.317,6.676c0.101,0.19-6.045-3.821-6.962-4.534c-0.215-0.17-9.268,8.232-12.243,12.672
		c-0.455,0.678,7.14-13.635,9.085-16.146c0.026-0.031-5.32-5.938-7.53-8.268c-0.25-0.267,7.456,3.37,8.652,3.916
		c0,0,1.251,0.579,2.342-0.195c0.612-0.436,1.64-1.486,2.194-2.115c0.794-0.9,1.887-1.859,2.406-1.473
		c0.649,0.489-0.54,1.817-1.036,2.491C-230.355,472.465-232.06,474.327-230.255,474.925"/>
	<path fill="#EE7F1C" d="M-208.485,456.881c-0.297,2.479-2.547,4.245-5.023,3.95c-2.478-0.299-4.246-2.548-3.949-5.025
		c0.297-2.476,2.546-4.244,5.025-3.947C-209.957,452.153-208.188,454.404-208.485,456.881"/>
</g>
</svg>
