<?xml version="1.0" encoding="UTF-8" standalone="no"?>
<svg width="53px" height="61px" viewBox="0 0 53 61" version="1.1" xmlns="http://www.w3.org/2000/svg" xmlns:xlink="http://www.w3.org/1999/xlink" xmlns:sketch="http://www.bohemiancoding.com/sketch/ns">
    <title>footer-logo</title>
    <description>Created with Sketch (http://www.bohemiancoding.com/sketch)</description>
    <defs></defs>
    <g id="Page-1" stroke="none" stroke-width="1" fill="none" fill-rule="evenodd" sketch:type="MSPage">
        <g id="Group" sketch:type="MSLayerGroup">
            <path d="M13.2488033,22.875 L0,15.25 L26.5,0 L53,15.25 L39.75,22.875 L26.5,15.25 L13.2488033,22.875 Z M13.2488033,22.875" id="Path-12" fill="#4795CB" sketch:type="MSShapeGroup"></path>
            <path d="M39.75,22.875 L53,15.25 L53,45.7488086 L26.5,61 L26.5,45.7488086 L39.75,38.125 L39.75,22.875 Z M39.75,22.875" id="Path-13" fill="#BB0384" sketch:type="MSShapeGroup"></path>
            <path d="M0,15.25 L13.2488033,22.875 L13.2488033,38.125 L26.5,45.7488086 L26.5,61 L0,45.7488086 L0,15.25 Z M0,15.25" id="Path-14" fill="#523DB5" sketch:type="MSShapeGroup"></path>
            <path d="M26.5,45.7488086 L13.2488033,53.375 L26.5,61 L26.5,45.7488086 Z M26.5,45.7488086" id="Path-15" fill-opacity="0.63" fill="#BB0384" sketch:type="MSShapeGroup"></path>
            <path d="M0,15.25 L13.2488033,22.875 L13.2488033,7.625 L0,15.25 Z M0,15.25" id="Path-16" fill-opacity="0.63" fill="#523DB5" sketch:type="MSShapeGroup"></path>
            <path d="M39.75,22.875 L53,15.25 L53,30.5 L39.75,22.875 Z M39.75,22.875" id="Path-17" fill-opacity="0.63" fill="#4795CB" sketch:type="MSShapeGroup"></path>
            <path d="M0,15.25 L26.5,30.5 L26.5,61 L0,45.7488086 L0,15.25 Z M0,15.25" id="Path-18" fill-opacity="0.25" fill="#000000" sketch:type="MSShapeGroup"></path>
        </g>
    </g>
</svg>